<svg width="560" height="520" viewBox="0 0 560 520" fill="none" xmlns="http://www.w3.org/2000/svg">
  <defs>
    <radialGradient id="halo" cx="0" cy="0" r="1" gradientUnits="userSpaceOnUse" gradientTransform="translate(280 230) rotate(90) scale(220 220)">
      <stop stop-color="#D9B85A" stop-opacity="0.85"/>
      <stop offset="1" stop-color="#D9B85A" stop-opacity="0"/>
    </radialGradient>
    <linearGradient id="book" x1="120" y1="120" x2="420" y2="390" gradientUnits="userSpaceOnUse">
      <stop stop-color="#1B2750"/>
      <stop offset="1" stop-color="#0B1228"/>
    </linearGradient>
  </defs>
  <circle cx="280" cy="240" r="220" fill="url(#halo)"/>
  <path d="M130 148C130 122.49 150.49 102 176 102H276C300.85 102 321 122.15 321 147V388C321 398.493 312.493 407 302 407H199C160.892 407 130 376.108 130 338V148Z" fill="url(#book)" stroke="#D9B85A" stroke-width="3"/>
  <path d="M424 148C424 122.49 403.51 102 378 102H278C253.15 102 233 122.15 233 147V388C233 398.493 241.507 407 252 407H355C393.108 407 424 376.108 424 338V148Z" fill="url(#book)" stroke="#D9B85A" stroke-width="3"/>
  <path d="M279 130V390" stroke="#D9B85A" stroke-opacity="0.8" stroke-width="2"/>
  <g opacity="0.75">
    <circle cx="178" cy="84" r="2.8" fill="#F4F7FF"/>
    <circle cx="398" cy="76" r="2" fill="#D9B85A"/>
    <circle cx="94" cy="230" r="1.8" fill="#8E6CFF"/>
    <circle cx="452" cy="262" r="2.5" fill="#F4F7FF"/>
    <circle cx="324" cy="62" r="2" fill="#D9B85A"/>
  </g>
</svg>
