<svg width="860" height="210" viewBox="0 0 860 210" fill="none" xmlns="http://www.w3.org/2000/svg" role="img" aria-labelledby="title desc">
  <title id="title">Logo Club da Biblia</title>
  <desc id="desc">Marca horizontal com icone de livro, nome Club da Biblia e bloco Leituras Biblicas.</desc>

  <g transform="translate(10 53)">
    <rect x="0" y="0" width="44" height="30" rx="8" stroke="#182845" stroke-width="4"/>
    <path d="M16 9L28 15L16 21V9Z" fill="#182845"/>

    <path d="M68 4C75 4 80 9 80 16V33C80 40 75 45 68 45H58V35H66C69 35 72 33 72 30V22C72 19 69 17 66 17C63 17 61 19 61 22V51" stroke="#182845" stroke-width="4" stroke-linecap="round" stroke-linejoin="round"/>
    <path d="M99 15C99 10 103 6 108 6C113 6 117 10 117 15C117 20 113 24 108 24C103 24 99 20 99 15Z" stroke="#182845" stroke-width="4"/>
    <rect x="92" y="27" width="32" height="28" rx="8" stroke="#182845" stroke-width="4"/>
    <circle cx="108" cy="40" r="7" stroke="#182845" stroke-width="4"/>

    <text x="0" y="86" fill="#F45D22" font-size="50" font-family="Inter, Arial, sans-serif" font-weight="700">@guigalino</text>
  </g>

  <g transform="translate(220 16)">
    <rect x="0" y="0" width="170" height="170" rx="36" fill="#F45D22"/>
    <path d="M50 58C50 52.5 54.5 48 60 48H88C97.5 48 105 55.5 105 65V115C105 118.9 101.9 122 98 122H73C67.5 122 63 117.5 63 112V62" stroke="#FFFFFF" stroke-width="9" stroke-linecap="round" stroke-linejoin="round"/>
    <path d="M104.5 65C104.5 55.5 112 48 121.5 48H110" stroke="#FFFFFF" stroke-width="9" stroke-linecap="round"/>
    <path d="M63 112C63 106.5 67.5 102 73 102H98" stroke="#FFFFFF" stroke-width="9" stroke-linecap="round"/>
  </g>

  <g transform="translate(422 44)">
    <text x="0" y="54" fill="#1B2A4A" font-size="76" font-family="Inter, Arial, sans-serif" font-weight="800">Clube da</text>
    <text x="0" y="136" fill="#F45D22" font-size="96" font-family="Inter, Arial, sans-serif" font-weight="800">Biblia</text>
  </g>

  <g transform="translate(704 56)">
    <text x="0" y="48" fill="#1B2A4A" font-size="64" font-family="Inter, Arial, sans-serif" font-weight="800">LEITURAS</text>
    <text x="0" y="106" fill="#1B2A4A" font-size="64" font-family="Inter, Arial, sans-serif" font-weight="800">BIBLICAS</text>
    <text x="0" y="154" fill="#F45D22" font-size="44" font-family="Inter, Arial, sans-serif" font-weight="700">Seg a Sab 7h20 a.m.</text>
  </g>
</svg>
